<svg width="56" height="16" viewBox="0 0 56 16" fill="none" xmlns="http://www.w3.org/2000/svg">
<path fill-rule="evenodd" clip-rule="evenodd" d="M0.0435028 12.3925L4.6922 0.349149H7.1522L11.784 12.3925H9.5275L8.61131 9.926H3.18221L2.283 12.3925H0.0435028ZM5.8968 2.5265L3.8269 8.1569H7.9666L5.8968 2.5265ZM20.9426 7.9187C20.9426 10.8615 19.3478 12.5455 17.1252 12.5455C16.26 12.5455 15.5474 12.2904 14.8518 11.8651V15.0801H12.8328V3.4961H14.3767L14.6991 4.3296C15.3438 3.8022 16.1582 3.343 17.3119 3.343C19.3817 3.343 20.9426 5.01 20.9426 7.9187ZM19.0085 7.9187C19.0085 6.0816 18.0753 4.993 16.735 4.993C15.9715 4.993 15.3268 5.3332 14.8518 5.7244V10.2662C15.3777 10.6234 16.0055 10.8955 16.6841 10.8785C18.0584 10.8785 19.0085 9.8579 19.0085 7.9187ZM30.3218 7.9187C30.3218 10.8615 28.727 12.5455 26.5044 12.5455C25.6391 12.5455 24.9266 12.2904 24.231 11.8651V15.0801H22.212V3.4961H23.7559L24.0783 4.3296C24.723 3.8022 25.5373 3.343 26.691 3.343C28.7609 3.343 30.3218 5.01 30.3218 7.9187ZM28.3876 7.9187C28.3876 6.0816 27.4545 4.993 26.1142 4.993C25.3507 4.993 24.706 5.3332 24.2309 5.7244V10.2662C24.7569 10.6234 25.3846 10.8955 26.0633 10.8785C27.4375 10.8785 28.3876 9.8579 28.3876 7.9187ZM39.192 8.5992H33.0163C33.1181 10.062 34.1021 11.0656 35.68 11.0656C36.5113 11.0656 37.4614 10.7935 38.3097 10.3172L38.8526 11.627C37.8516 12.2223 36.6471 12.5455 35.5103 12.5455C32.9145 12.5455 31.1331 10.9466 31.1331 7.9868C31.1331 5.1631 32.8636 3.3089 35.2049 3.3089C37.665 3.3089 39.192 5.2311 39.192 8.0718V8.5992ZM35.188 4.8229C33.9664 4.8229 33.1351 5.8605 33.0163 7.3574H37.3257C37.2069 5.8605 36.4265 4.8229 35.188 4.8229ZM42.3785 12.3925H40.3595V0.0429688H42.3785V12.3925ZM46.1419 12.3925H44.1229V0.0429688H46.1419V12.3925ZM55.8265 7.9357C55.8265 10.7595 54.0111 12.5796 51.6189 12.5796C49.1927 12.5796 47.4113 10.7765 47.4113 7.9528C47.4113 5.129 49.2266 3.3089 51.6358 3.3089C54.028 3.3089 55.8265 5.112 55.8265 7.9357ZM53.9602 7.9528C53.9602 6.2007 52.9931 4.976 51.6189 4.976C50.2277 4.976 49.2775 6.1837 49.2775 7.9358C49.2775 9.6878 50.2446 10.8955 51.6358 10.8955C52.9931 10.8955 53.9602 9.7048 53.9602 7.9528Z" fill="white"/>
</svg>
